<svg xmlns="http://www.w3.org/2000/svg" viewBox="0 0 1600 900" role="img" aria-label="Fox family simulator banner">
  <defs>
    <linearGradient id="sky" x1="0" y1="0" x2="1" y2="1">
      <stop offset="0%" stop-color="#f7f1de"/>
      <stop offset="36%" stop-color="#f6b85d"/>
      <stop offset="72%" stop-color="#cb6d31"/>
      <stop offset="100%" stop-color="#6c3b2a"/>
    </linearGradient>
    <linearGradient id="mountain" x1="0" y1="0" x2="0" y2="1">
      <stop offset="0%" stop-color="#8b8f95"/>
      <stop offset="100%" stop-color="#5b6268"/>
    </linearGradient>
    <radialGradient id="sun" cx="0.8" cy="0.2" r="0.35">
      <stop offset="0%" stop-color="#fff6d6" stop-opacity="1"/>
      <stop offset="70%" stop-color="#fff0bb" stop-opacity="0.36"/>
      <stop offset="100%" stop-color="#fff0bb" stop-opacity="0"/>
    </radialGradient>
    <linearGradient id="ground" x1="0" y1="0" x2="0" y2="1">
      <stop offset="0%" stop-color="#5c6f44"/>
      <stop offset="100%" stop-color="#314120"/>
    </linearGradient>
  </defs>

  <rect width="1600" height="900" fill="url(#sky)"/>
  <circle cx="1370" cy="118" r="280" fill="url(#sun)"/>

  <path d="M0 520L160 440L320 490L460 365L605 440L750 300L900 410L1030 330L1160 380L1285 315L1440 388L1600 330V900H0Z" fill="#9a6644" opacity="0.24"/>
  <path d="M0 525L180 380L360 465L560 250L760 420L940 250L1100 380L1260 280L1440 395L1600 295V900H0Z" fill="url(#mountain)" opacity="0.72"/>
  <path d="M0 610L220 510L440 570L700 430L920 550L1120 470L1320 530L1600 430V900H0Z" fill="#4c5058" opacity="0.7"/>

  <path d="M0 615C130 598 250 648 380 632C520 615 612 553 740 560C880 569 987 639 1118 628C1244 616 1340 550 1600 588V900H0Z" fill="url(#ground)"/>
  <path d="M0 682C220 645 360 700 520 688C690 675 838 622 1006 635C1174 648 1315 711 1600 685V900H0Z" fill="#3d5430" opacity="0.55"/>

  <g fill="#2a4321">
    <rect x="128" y="500" width="18" height="198" rx="8"/>
    <polygon points="52,530 136,380 220,530"/>
    <polygon points="62,470 136,320 208,470"/>
    <polygon points="74,412 136,268 198,412"/>
    <rect x="1428" y="470" width="20" height="236" rx="8"/>
    <polygon points="1350,506 1438,352 1524,506"/>
    <polygon points="1364,442 1438,300 1508,442"/>
    <polygon points="1382,384 1438,252 1494,384"/>
  </g>

  <g fill="#d26a2a">
    <circle cx="188" cy="712" r="10"/>
    <circle cx="220" cy="726" r="8"/>
    <circle cx="252" cy="704" r="11"/>
    <circle cx="290" cy="734" r="9"/>
    <circle cx="1258" cy="720" r="10"/>
    <circle cx="1292" cy="744" r="8"/>
    <circle cx="1360" cy="708" r="11"/>
    <circle cx="1410" cy="732" r="9"/>
  </g>

  <g id="fox-family">
    <g transform="translate(0 6)">
      <ellipse cx="100" cy="126" rx="64" ry="42" fill="#f09a3b"/>
      <ellipse cx="93" cy="132" rx="28" ry="18" fill="#fff0da"/>
      <circle cx="160" cy="88" r="31" fill="#f59c37"/>
      <polygon points="142,64 152,34 164,64" fill="#f59c37"/>
      <polygon points="166,64 176,34 188,64" fill="#f59c37"/>
      <polygon points="47,114 0,94 44,150 74,136" fill="#f7b35f"/>
      <polygon points="18,99 0,62 28,82" fill="#fff5e1"/>
      <polygon points="71,98 96,72 112,112" fill="#c95d1e" opacity="0.8"/>
      <ellipse cx="153" cy="103" rx="14" ry="11" fill="#fff5e4"/>
      <circle cx="154" cy="93" r="3.2" fill="#2a1b12"/>
      <circle cx="167" cy="93" r="3.2" fill="#2a1b12"/>
      <rect x="74" y="146" width="9" height="37" rx="4.5" fill="#4e2d1d"/>
      <rect x="98" y="146" width="9" height="37" rx="4.5" fill="#4e2d1d"/>
      <rect x="131" y="146" width="9" height="37" rx="4.5" fill="#4e2d1d"/>
      <rect x="155" y="146" width="9" height="37" rx="4.5" fill="#4e2d1d"/>
      <polygon points="106,154 126,146 124,172 102,166" fill="#3d2415"/>
    </g>
  </g>

  <use href="#fox-family" transform="translate(960 480) scale(1.18)"/>
  <use href="#fox-family" transform="translate(780 620) scale(0.75)"/>
  <use href="#fox-family" transform="translate(1160 620) scale(0.78)"/>

  <g opacity="0.55" fill="#ffe7c1">
    <path d="M1260 180l12 34 34 12-34 12-12 34-12-34-34-12 34-12z"/>
    <path d="M240 150l10 25 25 10-25 10-10 25-10-25-25-10 25-10z"/>
    <path d="M1140 130l8 18 18 8-18 8-8 18-8-18-18-8 18-8z"/>
  </g>
</svg>
